<mxfile host="app.diagrams.net" agent="Mozilla/5.0 (Windows NT 10.0; Win64; x64) AppleWebKit/537.36 (KHTML, like Gecko) Chrome/130.0.0.0 YaBrowser/24.12.0.0 Safari/537.36" version="26.0.8">
  <diagram name="Страница — 1" id="-ktup5NDSHvE0i02gH0w">
    <mxGraphModel dx="842" dy="488" grid="1" gridSize="10" guides="1" tooltips="1" connect="1" arrows="1" fold="1" page="1" pageScale="1" pageWidth="827" pageHeight="1169" math="0" shadow="0">
      <root>
        <mxCell id="0" />
        <mxCell id="1" parent="0" />
        <mxCell id="z2YoDn6WxsslsZiS7oRz-40" value="E&lt;sub&gt;0 &lt;/sub&gt;(0 / 0)" style="ellipse;whiteSpace=wrap;html=1;aspect=fixed;" vertex="1" parent="1">
          <mxGeometry x="320" y="120" width="80" height="80" as="geometry" />
        </mxCell>
        <mxCell id="z2YoDn6WxsslsZiS7oRz-42" value="E&lt;sub&gt;1&amp;nbsp;&lt;/sub&gt;(1 / 0)" style="ellipse;whiteSpace=wrap;html=1;aspect=fixed;" vertex="1" parent="1">
          <mxGeometry x="200" y="200" width="80" height="80" as="geometry" />
        </mxCell>
        <mxCell id="z2YoDn6WxsslsZiS7oRz-43" value="E&lt;sub&gt;2&amp;nbsp;&lt;/sub&gt;(2 / 0)" style="ellipse;whiteSpace=wrap;html=1;aspect=fixed;" vertex="1" parent="1">
          <mxGeometry x="440" y="200" width="80" height="80" as="geometry" />
        </mxCell>
        <mxCell id="z2YoDn6WxsslsZiS7oRz-44" value="E&lt;sub&gt;3&amp;nbsp;&lt;/sub&gt;(1 / 1)" style="ellipse;whiteSpace=wrap;html=1;aspect=fixed;" vertex="1" parent="1">
          <mxGeometry x="200" y="300" width="80" height="80" as="geometry" />
        </mxCell>
        <mxCell id="z2YoDn6WxsslsZiS7oRz-45" value="E&lt;sub&gt;4&amp;nbsp;&lt;/sub&gt;(2 / 1)" style="ellipse;whiteSpace=wrap;html=1;aspect=fixed;" vertex="1" parent="1">
          <mxGeometry x="440" y="300" width="80" height="80" as="geometry" />
        </mxCell>
        <mxCell id="z2YoDn6WxsslsZiS7oRz-46" value="E&lt;sub&gt;5&amp;nbsp;&lt;/sub&gt;(1 / 2)" style="ellipse;whiteSpace=wrap;html=1;aspect=fixed;" vertex="1" parent="1">
          <mxGeometry x="200" y="400" width="80" height="80" as="geometry" />
        </mxCell>
        <mxCell id="z2YoDn6WxsslsZiS7oRz-47" value="E&lt;sub&gt;6&amp;nbsp;&lt;/sub&gt;(2 / 2)" style="ellipse;whiteSpace=wrap;html=1;aspect=fixed;" vertex="1" parent="1">
          <mxGeometry x="440" y="400" width="80" height="80" as="geometry" />
        </mxCell>
        <mxCell id="z2YoDn6WxsslsZiS7oRz-48" value="E&lt;sub&gt;7&amp;nbsp;&lt;/sub&gt;(1 / 3)" style="ellipse;whiteSpace=wrap;html=1;aspect=fixed;" vertex="1" parent="1">
          <mxGeometry x="200" y="500" width="80" height="80" as="geometry" />
        </mxCell>
        <mxCell id="z2YoDn6WxsslsZiS7oRz-49" value="E&lt;sub&gt;8&amp;nbsp;&lt;/sub&gt;(2 / 3)" style="ellipse;whiteSpace=wrap;html=1;aspect=fixed;" vertex="1" parent="1">
          <mxGeometry x="440" y="500" width="80" height="80" as="geometry" />
        </mxCell>
        <mxCell id="z2YoDn6WxsslsZiS7oRz-50" value="" style="endArrow=classic;startArrow=classic;html=1;rounded=0;fontSize=12;startSize=8;endSize=8;curved=1;entryX=0;entryY=0.5;entryDx=0;entryDy=0;exitX=0.5;exitY=0;exitDx=0;exitDy=0;" edge="1" parent="1" source="z2YoDn6WxsslsZiS7oRz-42" target="z2YoDn6WxsslsZiS7oRz-40">
          <mxGeometry width="50" height="50" relative="1" as="geometry">
            <mxPoint x="340" y="390" as="sourcePoint" />
            <mxPoint x="390" y="340" as="targetPoint" />
          </mxGeometry>
        </mxCell>
        <mxCell id="z2YoDn6WxsslsZiS7oRz-51" value="" style="endArrow=classic;startArrow=classic;html=1;rounded=0;fontSize=12;startSize=8;endSize=8;curved=1;entryX=1;entryY=0.5;entryDx=0;entryDy=0;exitX=0.5;exitY=0;exitDx=0;exitDy=0;" edge="1" parent="1" source="z2YoDn6WxsslsZiS7oRz-43" target="z2YoDn6WxsslsZiS7oRz-40">
          <mxGeometry width="50" height="50" relative="1" as="geometry">
            <mxPoint x="250" y="210" as="sourcePoint" />
            <mxPoint x="330" y="170" as="targetPoint" />
          </mxGeometry>
        </mxCell>
        <mxCell id="z2YoDn6WxsslsZiS7oRz-52" value="" style="endArrow=classic;startArrow=classic;html=1;rounded=0;fontSize=12;startSize=8;endSize=8;curved=1;entryX=0;entryY=0.5;entryDx=0;entryDy=0;" edge="1" parent="1" source="z2YoDn6WxsslsZiS7oRz-44">
          <mxGeometry width="50" height="50" relative="1" as="geometry">
            <mxPoint x="160" y="320" as="sourcePoint" />
            <mxPoint x="240" y="280" as="targetPoint" />
          </mxGeometry>
        </mxCell>
        <mxCell id="z2YoDn6WxsslsZiS7oRz-53" value="" style="endArrow=classic;startArrow=classic;html=1;rounded=0;fontSize=12;startSize=8;endSize=8;curved=1;entryX=0.5;entryY=1;entryDx=0;entryDy=0;" edge="1" parent="1" source="z2YoDn6WxsslsZiS7oRz-45" target="z2YoDn6WxsslsZiS7oRz-43">
          <mxGeometry width="50" height="50" relative="1" as="geometry">
            <mxPoint x="340" y="390" as="sourcePoint" />
            <mxPoint x="390" y="340" as="targetPoint" />
          </mxGeometry>
        </mxCell>
        <mxCell id="z2YoDn6WxsslsZiS7oRz-57" value="" style="endArrow=classic;startArrow=classic;html=1;rounded=0;fontSize=12;startSize=8;endSize=8;curved=1;entryX=0.5;entryY=1;entryDx=0;entryDy=0;exitX=0.5;exitY=0;exitDx=0;exitDy=0;" edge="1" parent="1" source="z2YoDn6WxsslsZiS7oRz-46" target="z2YoDn6WxsslsZiS7oRz-44">
          <mxGeometry width="50" height="50" relative="1" as="geometry">
            <mxPoint x="340" y="390" as="sourcePoint" />
            <mxPoint x="390" y="340" as="targetPoint" />
          </mxGeometry>
        </mxCell>
        <mxCell id="z2YoDn6WxsslsZiS7oRz-58" value="" style="endArrow=classic;startArrow=classic;html=1;rounded=0;fontSize=12;startSize=8;endSize=8;curved=1;entryX=0.5;entryY=1;entryDx=0;entryDy=0;" edge="1" parent="1" source="z2YoDn6WxsslsZiS7oRz-48" target="z2YoDn6WxsslsZiS7oRz-46">
          <mxGeometry width="50" height="50" relative="1" as="geometry">
            <mxPoint x="250" y="410" as="sourcePoint" />
            <mxPoint x="250" y="390" as="targetPoint" />
          </mxGeometry>
        </mxCell>
        <mxCell id="z2YoDn6WxsslsZiS7oRz-59" value="" style="endArrow=classic;startArrow=classic;html=1;rounded=0;fontSize=12;startSize=8;endSize=8;curved=1;entryX=0.5;entryY=1;entryDx=0;entryDy=0;exitX=0.5;exitY=0;exitDx=0;exitDy=0;" edge="1" parent="1" source="z2YoDn6WxsslsZiS7oRz-47" target="z2YoDn6WxsslsZiS7oRz-45">
          <mxGeometry width="50" height="50" relative="1" as="geometry">
            <mxPoint x="250" y="410" as="sourcePoint" />
            <mxPoint x="250" y="390" as="targetPoint" />
          </mxGeometry>
        </mxCell>
        <mxCell id="z2YoDn6WxsslsZiS7oRz-60" value="" style="endArrow=classic;startArrow=classic;html=1;rounded=0;fontSize=12;startSize=8;endSize=8;curved=1;entryX=0.5;entryY=0;entryDx=0;entryDy=0;exitX=0.5;exitY=1;exitDx=0;exitDy=0;" edge="1" parent="1" source="z2YoDn6WxsslsZiS7oRz-47" target="z2YoDn6WxsslsZiS7oRz-49">
          <mxGeometry width="50" height="50" relative="1" as="geometry">
            <mxPoint x="490" y="410" as="sourcePoint" />
            <mxPoint x="490" y="390" as="targetPoint" />
          </mxGeometry>
        </mxCell>
        <mxCell id="z2YoDn6WxsslsZiS7oRz-61" value="" style="endArrow=classic;html=1;rounded=0;fontSize=12;startSize=8;endSize=8;curved=1;exitX=1;exitY=0.5;exitDx=0;exitDy=0;entryX=0;entryY=0.5;entryDx=0;entryDy=0;" edge="1" parent="1" source="z2YoDn6WxsslsZiS7oRz-48" target="z2YoDn6WxsslsZiS7oRz-47">
          <mxGeometry width="50" height="50" relative="1" as="geometry">
            <mxPoint x="340" y="390" as="sourcePoint" />
            <mxPoint x="390" y="340" as="targetPoint" />
          </mxGeometry>
        </mxCell>
        <mxCell id="z2YoDn6WxsslsZiS7oRz-62" value="" style="endArrow=classic;html=1;rounded=0;fontSize=12;startSize=8;endSize=8;curved=1;exitX=0;exitY=0.5;exitDx=0;exitDy=0;entryX=1;entryY=0.5;entryDx=0;entryDy=0;" edge="1" parent="1">
          <mxGeometry width="50" height="50" relative="1" as="geometry">
            <mxPoint x="440" y="440" as="sourcePoint" />
            <mxPoint x="280" y="340" as="targetPoint" />
          </mxGeometry>
        </mxCell>
        <mxCell id="z2YoDn6WxsslsZiS7oRz-63" value="" style="endArrow=classic;html=1;rounded=0;fontSize=12;startSize=8;endSize=8;curved=1;exitX=0;exitY=0.5;exitDx=0;exitDy=0;entryX=1;entryY=0.5;entryDx=0;entryDy=0;" edge="1" parent="1">
          <mxGeometry width="50" height="50" relative="1" as="geometry">
            <mxPoint x="440" y="540" as="sourcePoint" />
            <mxPoint x="280" y="440" as="targetPoint" />
          </mxGeometry>
        </mxCell>
        <mxCell id="z2YoDn6WxsslsZiS7oRz-65" value="" style="endArrow=classic;html=1;rounded=0;fontSize=12;startSize=8;endSize=8;curved=1;exitX=1;exitY=0.5;exitDx=0;exitDy=0;entryX=0;entryY=0.5;entryDx=0;entryDy=0;" edge="1" parent="1">
          <mxGeometry width="50" height="50" relative="1" as="geometry">
            <mxPoint x="280" y="440" as="sourcePoint" />
            <mxPoint x="440" y="340" as="targetPoint" />
          </mxGeometry>
        </mxCell>
        <mxCell id="z2YoDn6WxsslsZiS7oRz-66" value="" style="endArrow=classic;html=1;rounded=0;fontSize=12;startSize=8;endSize=8;curved=1;exitX=1;exitY=0.5;exitDx=0;exitDy=0;entryX=0;entryY=0.5;entryDx=0;entryDy=0;" edge="1" parent="1">
          <mxGeometry width="50" height="50" relative="1" as="geometry">
            <mxPoint x="280" y="340" as="sourcePoint" />
            <mxPoint x="440" y="240" as="targetPoint" />
          </mxGeometry>
        </mxCell>
        <mxCell id="z2YoDn6WxsslsZiS7oRz-67" value="" style="endArrow=classic;html=1;rounded=0;fontSize=12;startSize=8;endSize=8;curved=1;exitX=0;exitY=0.5;exitDx=0;exitDy=0;entryX=1;entryY=0.5;entryDx=0;entryDy=0;" edge="1" parent="1">
          <mxGeometry width="50" height="50" relative="1" as="geometry">
            <mxPoint x="440" y="340" as="sourcePoint" />
            <mxPoint x="280" y="240" as="targetPoint" />
          </mxGeometry>
        </mxCell>
        <mxCell id="z2YoDn6WxsslsZiS7oRz-68" value="&lt;font style=&quot;font-size: 13px;&quot;&gt;q&lt;sub&gt;1&lt;/sub&gt;&lt;/font&gt;" style="text;html=1;align=center;verticalAlign=middle;resizable=0;points=[];autosize=1;strokeColor=none;fillColor=none;fontSize=16;" vertex="1" parent="1">
          <mxGeometry x="230" y="160" width="40" height="30" as="geometry" />
        </mxCell>
        <mxCell id="z2YoDn6WxsslsZiS7oRz-69" value="&lt;font style=&quot;font-size: 13px;&quot;&gt;q&lt;sub&gt;1&lt;/sub&gt;&lt;/font&gt;" style="text;html=1;align=center;verticalAlign=middle;resizable=0;points=[];autosize=1;strokeColor=none;fillColor=none;fontSize=16;" vertex="1" parent="1">
          <mxGeometry x="190" y="280" width="40" height="30" as="geometry" />
        </mxCell>
        <mxCell id="z2YoDn6WxsslsZiS7oRz-70" value="&lt;font style=&quot;font-size: 13px;&quot;&gt;q&lt;sub&gt;1&lt;/sub&gt;&lt;/font&gt;" style="text;html=1;align=center;verticalAlign=middle;resizable=0;points=[];autosize=1;strokeColor=none;fillColor=none;fontSize=16;" vertex="1" parent="1">
          <mxGeometry x="200" y="380" width="40" height="30" as="geometry" />
        </mxCell>
        <mxCell id="z2YoDn6WxsslsZiS7oRz-71" value="&lt;font style=&quot;font-size: 13px;&quot;&gt;q&lt;sub&gt;1&lt;/sub&gt;&lt;/font&gt;" style="text;html=1;align=center;verticalAlign=middle;resizable=0;points=[];autosize=1;strokeColor=none;fillColor=none;fontSize=16;" vertex="1" parent="1">
          <mxGeometry x="200" y="480" width="40" height="30" as="geometry" />
        </mxCell>
        <mxCell id="z2YoDn6WxsslsZiS7oRz-72" value="&lt;font style=&quot;font-size: 13px;&quot;&gt;q&lt;sub&gt;2&lt;/sub&gt;&lt;/font&gt;" style="text;html=1;align=center;verticalAlign=middle;resizable=0;points=[];autosize=1;strokeColor=none;fillColor=none;fontSize=16;" vertex="1" parent="1">
          <mxGeometry x="470" y="160" width="40" height="30" as="geometry" />
        </mxCell>
        <mxCell id="z2YoDn6WxsslsZiS7oRz-73" value="&lt;font style=&quot;font-size: 13px;&quot;&gt;q&lt;sub&gt;2&lt;/sub&gt;&lt;/font&gt;" style="text;html=1;align=center;verticalAlign=middle;resizable=0;points=[];autosize=1;strokeColor=none;fillColor=none;fontSize=16;" vertex="1" parent="1">
          <mxGeometry x="490" y="280" width="40" height="30" as="geometry" />
        </mxCell>
        <mxCell id="z2YoDn6WxsslsZiS7oRz-74" value="&lt;font style=&quot;font-size: 13px;&quot;&gt;q&lt;sub&gt;2&lt;/sub&gt;&lt;/font&gt;" style="text;html=1;align=center;verticalAlign=middle;resizable=0;points=[];autosize=1;strokeColor=none;fillColor=none;fontSize=16;" vertex="1" parent="1">
          <mxGeometry x="490" y="380" width="40" height="30" as="geometry" />
        </mxCell>
        <mxCell id="z2YoDn6WxsslsZiS7oRz-75" value="&lt;font style=&quot;font-size: 13px;&quot;&gt;q&lt;sub&gt;2&lt;/sub&gt;&lt;/font&gt;" style="text;html=1;align=center;verticalAlign=middle;resizable=0;points=[];autosize=1;strokeColor=none;fillColor=none;fontSize=16;" vertex="1" parent="1">
          <mxGeometry x="490" y="480" width="40" height="30" as="geometry" />
        </mxCell>
        <mxCell id="z2YoDn6WxsslsZiS7oRz-76" value="&lt;span style=&quot;font-size: 13px;&quot;&gt;mu&lt;sub&gt;1&lt;/sub&gt;&lt;/span&gt;" style="text;html=1;align=center;verticalAlign=middle;resizable=0;points=[];autosize=1;strokeColor=none;fillColor=none;fontSize=16;" vertex="1" parent="1">
          <mxGeometry x="380" y="220" width="50" height="30" as="geometry" />
        </mxCell>
        <mxCell id="z2YoDn6WxsslsZiS7oRz-77" value="&lt;span style=&quot;font-size: 13px;&quot;&gt;mu&lt;sub&gt;1&lt;/sub&gt;&lt;/span&gt;" style="text;html=1;align=center;verticalAlign=middle;resizable=0;points=[];autosize=1;strokeColor=none;fillColor=none;fontSize=16;" vertex="1" parent="1">
          <mxGeometry x="380" y="325" width="50" height="30" as="geometry" />
        </mxCell>
        <mxCell id="z2YoDn6WxsslsZiS7oRz-78" value="&lt;span style=&quot;font-size: 13px;&quot;&gt;mu&lt;sub&gt;1&lt;/sub&gt;&lt;/span&gt;" style="text;html=1;align=center;verticalAlign=middle;resizable=0;points=[];autosize=1;strokeColor=none;fillColor=none;fontSize=16;" vertex="1" parent="1">
          <mxGeometry x="380" y="425" width="50" height="30" as="geometry" />
        </mxCell>
        <mxCell id="z2YoDn6WxsslsZiS7oRz-79" value="&lt;span style=&quot;font-size: 13px;&quot;&gt;mu&lt;/span&gt;&lt;span style=&quot;font-size: 10.8333px;&quot;&gt;&lt;sub&gt;2&lt;/sub&gt;&lt;/span&gt;" style="text;html=1;align=center;verticalAlign=middle;resizable=0;points=[];autosize=1;strokeColor=none;fillColor=none;fontSize=16;" vertex="1" parent="1">
          <mxGeometry x="290" y="425" width="50" height="30" as="geometry" />
        </mxCell>
        <mxCell id="z2YoDn6WxsslsZiS7oRz-80" value="&lt;span style=&quot;font-size: 13px;&quot;&gt;mu&lt;/span&gt;&lt;span style=&quot;font-size: 10.8333px;&quot;&gt;&lt;sub&gt;2&lt;/sub&gt;&lt;/span&gt;" style="text;html=1;align=center;verticalAlign=middle;resizable=0;points=[];autosize=1;strokeColor=none;fillColor=none;fontSize=16;" vertex="1" parent="1">
          <mxGeometry x="290" y="325" width="50" height="30" as="geometry" />
        </mxCell>
        <mxCell id="z2YoDn6WxsslsZiS7oRz-81" value="&lt;span style=&quot;font-size: 13px;&quot;&gt;mu&lt;/span&gt;&lt;span style=&quot;font-size: 10.8333px;&quot;&gt;&lt;sub&gt;2&lt;/sub&gt;&lt;/span&gt;" style="text;html=1;align=center;verticalAlign=middle;resizable=0;points=[];autosize=1;strokeColor=none;fillColor=none;fontSize=16;" vertex="1" parent="1">
          <mxGeometry x="414" y="250" width="50" height="30" as="geometry" />
        </mxCell>
        <mxCell id="z2YoDn6WxsslsZiS7oRz-82" value="&lt;span style=&quot;font-size: 13px;&quot;&gt;mu&lt;/span&gt;&lt;span style=&quot;font-size: 10.8333px;&quot;&gt;&lt;sub&gt;2&lt;/sub&gt;&lt;/span&gt;" style="text;html=1;align=center;verticalAlign=middle;resizable=0;points=[];autosize=1;strokeColor=none;fillColor=none;fontSize=16;" vertex="1" parent="1">
          <mxGeometry x="290" y="220" width="50" height="30" as="geometry" />
        </mxCell>
        <mxCell id="z2YoDn6WxsslsZiS7oRz-83" value="&lt;span style=&quot;font-size: 13px;&quot;&gt;mu&lt;/span&gt;&lt;span style=&quot;font-size: 10.8333px;&quot;&gt;&lt;sub&gt;2&lt;/sub&gt;&lt;/span&gt;" style="text;html=1;align=center;verticalAlign=middle;resizable=0;points=[];autosize=1;strokeColor=none;fillColor=none;fontSize=16;" vertex="1" parent="1">
          <mxGeometry x="420" y="370" width="50" height="30" as="geometry" />
        </mxCell>
        <mxCell id="z2YoDn6WxsslsZiS7oRz-84" value="&lt;span style=&quot;font-size: 13px;&quot;&gt;mu&lt;/span&gt;&lt;span style=&quot;font-size: 10.8333px;&quot;&gt;&lt;sub&gt;2&lt;/sub&gt;&lt;/span&gt;" style="text;html=1;align=center;verticalAlign=middle;resizable=0;points=[];autosize=1;strokeColor=none;fillColor=none;fontSize=16;" vertex="1" parent="1">
          <mxGeometry x="430" y="480" width="50" height="30" as="geometry" />
        </mxCell>
        <mxCell id="z2YoDn6WxsslsZiS7oRz-85" value="&lt;span style=&quot;font-size: 13px;&quot;&gt;mu&lt;/span&gt;&lt;span style=&quot;font-size: 10.8333px;&quot;&gt;&lt;sub&gt;1&lt;/sub&gt;&lt;/span&gt;" style="text;html=1;align=center;verticalAlign=middle;resizable=0;points=[];autosize=1;strokeColor=none;fillColor=none;fontSize=16;" vertex="1" parent="1">
          <mxGeometry x="240" y="470" width="50" height="30" as="geometry" />
        </mxCell>
        <mxCell id="z2YoDn6WxsslsZiS7oRz-86" value="&lt;span style=&quot;font-size: 13px;&quot;&gt;mu&lt;/span&gt;&lt;span style=&quot;font-size: 10.8333px;&quot;&gt;&lt;sub&gt;1&lt;/sub&gt;&lt;/span&gt;" style="text;html=1;align=center;verticalAlign=middle;resizable=0;points=[];autosize=1;strokeColor=none;fillColor=none;fontSize=16;" vertex="1" parent="1">
          <mxGeometry x="240" y="370" width="50" height="30" as="geometry" />
        </mxCell>
        <mxCell id="z2YoDn6WxsslsZiS7oRz-88" value="&lt;span style=&quot;font-size: 13px;&quot;&gt;mu&lt;/span&gt;&lt;span style=&quot;font-size: 10.8333px;&quot;&gt;&lt;sub&gt;1&lt;/sub&gt;&lt;/span&gt;" style="text;html=1;align=center;verticalAlign=middle;resizable=0;points=[];autosize=1;strokeColor=none;fillColor=none;fontSize=16;" vertex="1" parent="1">
          <mxGeometry x="240" y="270" width="50" height="30" as="geometry" />
        </mxCell>
        <mxCell id="z2YoDn6WxsslsZiS7oRz-89" value="&lt;span style=&quot;font-size: 13px;&quot;&gt;mu&lt;/span&gt;&lt;span style=&quot;font-size: 10.8333px;&quot;&gt;&lt;sub&gt;1&lt;/sub&gt;&lt;/span&gt;" style="text;html=1;align=center;verticalAlign=middle;resizable=0;points=[];autosize=1;strokeColor=none;fillColor=none;fontSize=16;" vertex="1" parent="1">
          <mxGeometry x="270" y="140" width="50" height="30" as="geometry" />
        </mxCell>
        <mxCell id="z2YoDn6WxsslsZiS7oRz-90" value="&lt;span style=&quot;font-size: 13px;&quot;&gt;mu&lt;/span&gt;&lt;span style=&quot;font-size: 10.8333px;&quot;&gt;&lt;sub&gt;2&lt;/sub&gt;&lt;/span&gt;" style="text;html=1;align=center;verticalAlign=middle;resizable=0;points=[];autosize=1;strokeColor=none;fillColor=none;fontSize=16;" vertex="1" parent="1">
          <mxGeometry x="400" y="140" width="50" height="30" as="geometry" />
        </mxCell>
      </root>
    </mxGraphModel>
  </diagram>
</mxfile>
